<svg width="100px" height="100px" viewBox="0.95 0 1.667 1.867" version="1.1" xmlns="http://www.w3.org/2000/svg" xmlns:xlink="http://www.w3.org/1999/xlink" class="si-glyph si-glyph-database"><title>645</title><defs/><g stroke="none" stroke-width="1" fill="none" fill-rule="evenodd"><g transform="translate(1)" fill="#434343"><path cx="6.43" cy="2.421" rx="6.43" ry="2.421" class="si-glyph-fill" d="M1.607 0.303a0.804 0.303 0 0 1 -0.804 0.303A0.804 0.303 0 0 1 0 0.303a0.804 0.303 0 0 1 1.607 0z"/><path d="M0.808 1.385c-0.44 0 -0.806 -0.122 -0.806 -0.204v0.409c0 0.149 0.361 0.268 0.806 0.268s0.806 -0.12 0.806 -0.268V1.181c0 0.082 -0.366 0.204 -0.806 0.204Z" class="si-glyph-fill"/><path d="M0.812 0.756c-0.439 0 -0.806 -0.125 -0.806 -0.209v0.418c0 0.152 0.361 0.275 0.806 0.275s0.806 -0.123 0.806 -0.275V0.547c0 0.084 -0.366 0.209 -0.806 0.209Z" class="si-glyph-fill"/></g></g></svg>